<?xml version="1.0" encoding="UTF-8" standalone="no"?>
<!-- Created with Inkscape (http://www.inkscape.org/) -->

<svg
   width="52.115128mm"
   height="33.226067mm"
   viewBox="0 0 52.115128 33.226067"
   version="1.1"
   id="svg8807"
   inkscape:export-filename="new_logo1.svg"
   inkscape:export-xdpi="96"
   inkscape:export-ydpi="96"
   xmlns:inkscape="http://www.inkscape.org/namespaces/inkscape"
   xmlns:sodipodi="http://sodipodi.sourceforge.net/DTD/sodipodi-0.dtd"
   xmlns="http://www.w3.org/2000/svg"
   xmlns:svg="http://www.w3.org/2000/svg">
  <sodipodi:namedview
     id="namedview8809"
     pagecolor="#ffffff"
     bordercolor="#000000"
     borderopacity="0.25"
     inkscape:showpageshadow="2"
     inkscape:pageopacity="0.0"
     inkscape:pagecheckerboard="0"
     inkscape:deskcolor="#d1d1d1"
     inkscape:document-units="mm"
     showgrid="false"
     inkscape:zoom="0.74564394"
     inkscape:cx="397.64288"
     inkscape:cy="561.9304"
     inkscape:window-width="1920"
     inkscape:window-height="1017"
     inkscape:window-x="-8"
     inkscape:window-y="-8"
     inkscape:window-maximized="1"
     inkscape:current-layer="layer1" />
  <defs
     id="defs8804" />
  <g
     inkscape:label="Layer 1"
     inkscape:groupmode="layer"
     id="layer1"
     transform="translate(-70.103731,-108.64504)">
    <g
       id="g7820"
       transform="matrix(0.35277777,0,0,-0.35277777,109.27713,116.43303)"
       style="display:inline"
       sodipodi:insensitive="true">
      <path
         d="m 0,0 -46.605,-23.969 c -1.178,-0.596 -2.036,-1.933 -2.036,-3.163 v -13.067 c 0,-1.182 0.789,-2.517 1.874,-3.169 l 46.708,-28.303 c 0.473,-0.291 0.991,-0.436 1.502,-0.436 0.723,0 1.393,0.294 1.823,0.824 0.338,0.406 0.52,0.919 0.52,1.49 v 13.062 c 0,1.187 -0.789,2.523 -1.874,3.176 l -31.594,19.14 31.433,16.165 c 1.178,0.601 2.035,1.936 2.035,3.168 V -2.017 C 3.786,-0.229 1.767,0.903 0,0"
         style="fill:#70becf;fill-opacity:1;fill-rule:nonzero;stroke:none"
         id="path7822" />
    </g>
    <g
       id="g7824"
       transform="matrix(0.35277777,0,0,-0.35277777,121.13512,108.65919)"
       style="display:inline"
       sodipodi:insensitive="true">
      <path
         d="m 0,0 h -12.406 c -1.696,0 -3.071,-1.253 -3.071,-2.798 v -88.546 c 0,-1.538 1.375,-2.8 3.071,-2.8 H 0 c 1.697,0 3.072,1.262 3.072,2.8 V -2.798 C 3.072,-1.253 1.697,0 0,0"
         style="fill:#00618a;fill-opacity:1;fill-rule:nonzero;stroke:none"
         id="path7826" />
    </g>
    <g
       id="g7828"
       transform="matrix(0.35277777,0,0,-0.35277777,97.968941,113.98962)"
       style="display:inline"
       sodipodi:insensitive="true">
      <path
         d="m 0,0 v 12.351 c 0,1.545 -1.375,2.799 -3.073,2.799 h -72.844 c -1.696,0 -3.071,-1.254 -3.071,-2.799 V 0 c 0,-1.545 1.375,-2.799 3.071,-2.799 h 27.21 V -76.23 c 0,-1.542 1.379,-2.804 3.074,-2.804 h 13.565 c 1.69,0 3.07,1.262 3.07,2.804 V -2.799 H -3.073 C -1.375,-2.799 0,-1.545 0,0"
         style="fill:#00618a;fill-opacity:1;fill-rule:nonzero;stroke:none"
         id="path7830" />
    </g>
  </g>
</svg>
